<?xml version="1.0" encoding="UTF-8"?>
<svg id="Layer_1" data-name="Layer 1" xmlns="http://www.w3.org/2000/svg" viewBox="0 0 40 40">
  <circle cx="20" cy="20" r="20" fill="#161616"/>
  <path d="M33.94,14.57l-13.25-8.86c-.42-.28-.97-.28-1.39,0L6.05,14.57c-.34.23-.55.62-.55,1.04v8.78c0,.42.21.81.55,1.04l13.25,8.86c.21.14.46.21.7.21s.48-.07.69-.21l13.25-8.86c.35-.23.56-.62.56-1.04v-8.78c0-.42-.21-.81-.56-1.04ZM21.25,9.08l9.74,6.52-4.37,2.9-5.37-3.57v-5.85ZM18.75,9.08v5.85l-5.38,3.57-4.37-2.9,9.75-6.52ZM8,17.93l3.11,2.07-3.11,2.06v-4.13ZM18.75,30.91l-9.75-6.52,4.37-2.89,5.38,3.56v5.85ZM20,22.89l-4.37-2.89,4.37-2.9,4.36,2.9-4.36,2.89ZM21.25,30.91v-5.85l5.37-3.56,4.37,2.89-9.74,6.52ZM32,22.06l-3.12-2.06,3.12-2.07v4.13Z" fill="#fff"/>
</svg>