<?xml version="1.0" encoding="UTF-8"?>
<svg id="Layer_1" data-name="Layer 1" xmlns="http://www.w3.org/2000/svg" viewBox="0 0 40 40">
  <circle cx="20" cy="20" r="20" fill="#ea4c89"/>
  <path d="M20,5.97c-7.75,0-14.03,6.28-14.03,14.03s6.28,14.03,14.03,14.03,14.03-6.28,14.03-14.03-6.28-14.03-14.03-14.03ZM29.21,12.76c1.51,1.92,2.43,4.31,2.5,6.91-3.15-.55-5.86-.57-8.21-.2-.3-.68-.6-1.35-.92-1.99,2.52-1.03,4.77-2.54,6.62-4.73ZM27.59,11.08c-1.65,2.01-3.73,3.39-6.07,4.33-1.5-2.78-3.05-5.1-4.28-6.8.89-.22,1.81-.33,2.76-.33,2.9,0,5.55,1.06,7.59,2.8ZM14.96,9.42c1.19,1.59,2.78,3.9,4.33,6.73-3.29.9-6.97,1.15-10.7,1.16.82-3.49,3.2-6.38,6.37-7.89ZM8.28,20v-.38h.07c4.18,0,8.32-.27,12.04-1.37.28.56.55,1.14.82,1.74-4.89,1.43-7.94,4.65-10.03,7.71-1.8-2.06-2.9-4.76-2.9-7.7ZM12.89,29.31c1.98-2.98,4.74-5.93,9.22-7.17,1.05,2.69,1.9,5.62,2.36,8.69-1.38.57-2.88.89-4.46.89-2.67,0-5.14-.9-7.11-2.42ZM26.62,29.66c-.48-2.81-1.27-5.49-2.21-7.98,2.05-.26,4.41-.2,7.14.31-.55,3.18-2.37,5.92-4.93,7.68Z" fill="#fff"/>
</svg>