<?xml version="1.0" encoding="UTF-8"?>
<svg id="Layer_1" data-name="Layer 1" xmlns="http://www.w3.org/2000/svg" viewBox="0 0 40 40">
  <path d="M40,20c0,9.3-6.36,17.12-14.96,19.36-1.61.42-3.3.64-5.04.64s-3.43-.22-5.04-.64C6.35,37.12,0,29.3,0,20,0,8.95,8.95,0,20,0s20,8.95,20,20Z" fill="#fff" fill-rule="evenodd"/>
  <path d="M40,20c0,9.3-6.36,17.12-14.96,19.36-.01-.04-.01-.07-.01-.1,0-.69.03-2.93.03-5.72,0-1.96-.64-3.2-1.38-3.86,4.54-.52,9.29-2.27,9.29-10.27,0-2.28-.78-4.14-2.09-5.59.2-.51.91-2.65-.2-5.51,0,0-1.72-.55-5.59,2.14-1.61-.45-3.36-.69-5.08-.69s-3.42.23-5.08.69c-3.87-2.69-5.58-2.14-5.58-2.14-1.11,2.86-.41,5-.2,5.51-1.28,1.45-2.09,3.31-2.09,5.59,0,8,4.74,9.79,9.25,10.27-.57.52-1.11,1.45-1.28,2.79-1.17.55-4.1,1.45-5.92-1.72,0,0-1.07-2-3.13-2.14,0,0-1.98,0-.13,1.28,0,0,1.34.62,2.25,3.03,0,0,1.18,3.72,6.83,2.48,0,1.73.04,3.38.04,3.86,0,.03,0,.06-.01.1C6.35,37.12,0,29.3,0,20,0,8.95,8.95,0,20,0s20,8.95,20,20Z" fill="#24292f" fill-rule="evenodd"/>
</svg>