<?xml version="1.0" encoding="UTF-8"?>
<svg id="Layer_1" data-name="Layer 1" xmlns="http://www.w3.org/2000/svg" viewBox="0 0 40 40">
  <circle cx="20" cy="20" r="20" fill="#108a00"/>
  <path d="M27.78,23.73c-1.69-.09-3.23-1-4.13-2.44.53-4.26,2.09-5.58,4.15-5.58s3.62,1.6,3.62,3.99-1.6,3.99-3.62,3.99M27.79,13.04c-3-.12-5.65,1.92-6.3,4.85-.68-1.43-1.2-2.93-1.54-4.48h-5.08v6.3c0,2.29-1.04,3.99-3.07,3.99s-3.19-1.69-3.19-3.99v-6.3h-2.92v6.3c-.07,1.75.54,3.45,1.68,4.77,1.13,1.23,2.74,1.92,4.42,1.87,3.52,0,5.98-2.7,5.98-6.57v-4.26c.6,2.29,1.59,4.46,2.92,6.42l-1.56,8.92h2.97l1.03-6.32c.34.29.7.56,1.08.8.99.63,2.13.98,3.3,1.02h.27c3.57.04,6.49-2.83,6.53-6.39,0-.09,0-.18,0-.27.08-3.58-2.75-6.54-6.32-6.63-.07,0-.14,0-.21,0" fill="#fff"/>
</svg>